Coordinates
version=1
nRows=6
nColumns=36
inDegrees=yes

Units are S.I. units (second, meters, Newtons, ...)
If the header above contains a line with 'inDegrees', this indicates whether rotational values are in degrees (yes) or radians (no).

endheader
time	pelvis_tilt	pelvis_list	pelvis_rotation	pelvis_tx	pelvis_ty	pelvis_tz	hip_flexion_r	hip_adduction_r	hip_rotation_r	knee_angle_r	knee_angle_r_beta	ankle_angle_r	subtalar_angle_r	mtp_angle_r	hip_flexion_l	hip_adduction_l	hip_rotation_l	knee_angle_l	knee_angle_l_beta	ankle_angle_l	subtalar_angle_l	mtp_angle_l	lumbar_extension	lumbar_bending	lumbar_rotation	arm_flex_r	arm_add_r	arm_rot_r	elbow_flex_r	pro_sup_r	arm_flex_l	arm_add_l	arm_rot_l	elbow_flex_l	pro_sup_l
      0.33000000	      1.87527219	     -2.20071168	     -4.69321211	      0.26921721	      0.96422520	     -0.22757304	     -3.18061192	      7.57100994	      0.92473615	      5.77878648	      0.10085885	      8.58242863	     -5.32714610	     -6.27357195	     25.14909618	     -2.66454118	      0.20897995	     47.18865442	      0.82359739	     -2.67795846	    -18.00217100	     -6.27357195	     -6.36290170	      3.33303522	      6.37065604	      2.04608047	     -7.77785789	     -9.03955610	     40.11735480	    112.43585510	     -4.57944956	     -5.28876655	      0.85750874	     16.51809142	    106.93097470
      0.34000000	      1.76390035	     -2.21325706	     -5.19728747	      0.28046895	      0.96360927	     -0.22614646	     -4.04890942	      7.54119545	      1.39151237	      5.43020294	      0.09477492	      9.09658641	     -4.97709369	     -6.28962836	     25.56492259	     -2.88614290	     -0.27174368	     43.66015257	      0.76201341	     -3.12903429	    -17.58283801	     -6.28962836	     -6.37463499	      3.34551229	      6.96339140	      2.74512027	     -8.02570893	     -8.93311145	     40.83589994	    112.44903448	     -5.31432732	     -5.48584612	      0.59607429	     16.41130580	    106.82777141
      0.35000000	      1.82782223	     -2.28309000	     -5.70430565	      0.29185786	      0.96299867	     -0.22479223	     -5.18439295	      7.53221907	      1.84997086	      4.96977896	      0.08673901	      9.74074572	     -4.47700643	     -6.31182029	     25.62535260	     -3.15365924	     -0.81907072	     39.90659899	      0.69650155	     -3.84056420	    -17.24940559	     -6.31182029	     -6.60778816	      3.40720054	      7.62237041	      3.39263567	     -8.33539375	     -8.75512859	     41.65515143	    112.44478634	     -6.01842806	     -5.62702417	      0.11926914	     16.50301402	    106.67652582
      0.36000000	      1.80930549	     -2.40448262	     -6.21126157	      0.30320973	      0.96201907	     -0.22356929	     -6.20410641	      7.56310271	      2.30777146	      4.57276812	      0.07980986	     10.34358911	     -3.89862232	     -6.33985055	     25.66350029	     -3.43891889	     -1.27213546	     36.02798983	      0.62880705	     -4.55460234	    -16.76469346	     -6.33985055	     -6.77264868	      3.55792682	      8.17907673	      4.10742278	     -8.63084987	     -8.55639479	     42.44819146	    112.41159546	     -6.79357846	     -5.69899080	     -0.60504028	     16.73154258	    106.48735256
      0.37000000	      1.61453381	     -2.49144493	     -6.71531136	      0.31470551	      0.96053607	     -0.22237610	     -7.02610086	      7.56228919	      2.82042576	      4.20773886	      0.07343890	     10.84855726	     -3.55204512	     -6.35366676	     25.82039764	     -3.70706602	     -1.74199977	     32.11182487	      0.56045707	     -5.15751396	    -15.75910579	     -6.35366676	     -6.67623260	      3.68587256	      8.69207953	      4.78308419	     -8.90862128	     -8.38214909	     43.11546330	    112.41621107	     -7.60671453	     -5.81187568	     -1.05485723	     16.78301399	    106.37591783
      0.38000000	      1.74196191	     -2.64954863	     -7.21807923	      0.32640858	      0.95923974	     -0.22129377	     -8.25259230	      7.55199342	      2.96722009	      3.78781080	      0.06610977	     11.84647129	     -2.37627653	     -6.47486148	     25.49237041	     -4.01312942	     -2.36631092	     28.13776612	      0.49109666	     -5.43128987	    -14.52231145	     -6.47486148	     -7.01704879	      3.81871225	      8.84371542	      5.77731236	     -9.19185619	     -7.51419048	     43.58704628	    112.15493351	     -8.93446997	     -5.52129076	     -4.72801377	     18.32021487	    105.82852409
